# Blender 4.1.1
# www.blender.org
mtllib EnemyTauntArrow.mtl
o EnemyTauntArrow.001
v 0.156741 0.107466 -0.726025
v -0.156741 0.107466 -0.726025
v -0.156741 0.107466 0.481802
v 0.156741 0.107466 0.481802
v 0.313482 0.107466 0.481802
v -0.313482 0.107466 0.481802
v 0.000000 0.107466 0.999443
v 0.156741 0.028533 -0.726025
v -0.156741 0.028533 -0.726025
v -0.156741 0.028533 0.481802
v 0.156741 0.028533 0.481802
v 0.313482 0.028533 0.481802
v -0.313482 0.028533 0.481802
v 0.000000 0.028533 0.999443
vn -0.0000 1.0000 -0.0000
vn -0.0000 -1.0000 -0.0000
vn -0.0000 -0.0000 -1.0000
vn -1.0000 -0.0000 -0.0000
vn -0.0000 -0.0000 1.0000
vn 1.0000 -0.0000 -0.0000
vn -0.8554 -0.0000 -0.5180
vn 0.8554 -0.0000 -0.5180
s 1
usemtl Material.002
f 2//1 4//1 1//1
f 5//1 6//1 7//1
f 10//2 8//2 11//2
f 14//2 13//2 12//2
f 8//3 2//3 1//3
f 9//4 3//4 2//4
f 3//5 11//5 4//5
f 4//6 8//6 1//6
f 4//5 12//5 5//5
f 6//5 10//5 3//5
f 5//7 14//7 7//7
f 7//8 13//8 6//8
f 2//1 3//1 4//1
f 10//2 9//2 8//2
f 8//3 9//3 2//3
f 9//4 10//4 3//4
f 3//5 10//5 11//5
f 4//6 11//6 8//6
f 4//5 11//5 12//5
f 6//5 13//5 10//5
f 5//7 12//7 14//7
f 7//8 14//8 13//8
