# Blender 4.1.1
# www.blender.org
mtllib RottenBanana.mtl
o Banana_Peel_GEO
v 0.050763 0.012341 0.064095
v 0.026317 0.012341 0.106437
v 0.001869 0.012341 0.112988
v -0.070087 -0.014517 0.049974
v -0.033116 0.061864 -0.014962
v -0.033116 0.116874 -0.004314
v -0.037932 0.061940 0.064049
v 0.000006 0.116874 0.014808
v 0.015778 0.061864 0.033931
v 0.005130 0.116874 0.033931
v -0.008669 0.061864 0.076274
v -0.013993 0.116874 0.067052
v -0.033116 0.061864 0.082824
v -0.033116 0.116874 0.072176
v -0.063754 0.061864 0.076274
v -0.058430 0.116874 0.067052
v -0.054329 0.061940 0.013962
v -0.082009 0.061864 0.033931
v -0.071361 0.116874 0.033931
v -0.075459 0.061864 0.001699
v -0.066237 0.116874 0.007023
v -0.056803 0.061940 0.030983
v -0.016358 0.160532 0.018469
v -0.003740 0.156051 0.026200
v -0.001788 0.155358 0.033931
v -0.009072 0.157945 0.047321
v -0.016358 0.160532 0.049392
v -0.029834 0.163119 0.047321
v -0.030929 0.165706 0.033931
v -0.028976 0.165013 0.018415
v 0.030703 0.218164 0.017147
v 0.036596 0.206741 0.029098
v 0.036860 0.206504 0.038176
v 0.031687 0.217281 0.051028
v 0.027637 0.225406 0.051357
v 0.020356 0.235992 0.046051
v 0.021480 0.237066 0.030328
v 0.023839 0.231882 0.016037
v -0.038332 0.061940 0.012511
v -0.009623 0.061940 0.028223
v -0.022945 -0.001549 0.098867
v -0.052707 -0.008033 0.092317
v -0.012098 0.061940 0.018987
v -0.028095 0.061940 0.009751
v 0.009227 0.061864 0.009484
v -0.053929 0.061940 0.054813
v -0.019103 -0.015371 -0.037086
v 0.021112 -0.002115 -0.012639
v 0.027333 -0.000064 0.011808
v -0.056404 0.061940 0.045578
v -0.026936 0.061940 0.066448
v -0.017700 0.061940 0.063974
v -0.076593 -0.007871 -0.038844
v -0.077998 -0.007871 0.030287
v -0.090205 -0.007871 0.000331
v -0.008464 0.061940 0.047977
v 0.035314 0.012341 0.057888
v 0.016725 0.012341 0.090085
v -0.001864 0.012341 0.095066
v -0.055667 -0.010551 0.045288
v -0.050865 -0.009229 0.063877
v -0.021951 -0.016310 -0.019049
v 0.008627 -0.006230 -0.000460
v 0.013358 -0.004671 0.018129
v -0.062794 -0.007871 -0.029516
v -0.063862 -0.007871 0.023051
v -0.073144 -0.007871 -0.001593
v -0.019821 -0.000689 0.082466
v 0.130927 -0.026637 0.071765
v 0.119213 -0.037620 0.099577
v 0.107499 -0.048604 0.103880
v 0.123524 -0.033578 0.067688
v 0.114617 -0.041930 0.088836
v 0.105710 -0.050281 0.092108
v 0.210183 -0.101022 0.079594
v 0.204715 -0.106148 0.092576
v 0.206727 -0.104261 0.077691
v 0.202570 -0.108160 0.087562
v 0.055624 -0.088180 0.099945
v 0.040535 -0.097478 0.096497
v 0.045085 -0.099193 0.081527
v 0.043273 -0.101088 0.071742
v 0.056802 -0.086948 0.091312
v 0.037831 -0.106776 0.074208
v 0.211303 -0.100897 0.120224
v 0.208354 -0.105274 0.114988
v 0.206603 -0.101731 0.106295
v 0.212003 -0.097385 0.116155
v 0.092974 -0.112240 -0.030693
v 0.116188 -0.089975 -0.012122
v 0.119780 -0.086530 0.006449
v 0.091330 -0.113817 -0.016991
v 0.108982 -0.096887 -0.002870
v 0.111713 -0.094268 0.011251
v 0.195972 -0.112980 0.010424
v 0.206400 -0.102978 0.018766
v 0.195234 -0.113688 0.016579
v 0.203163 -0.106083 0.022922
v -0.016467 -0.114378 0.027820
v -0.031546 -0.114452 0.000000
v -0.026958 -0.088743 -0.035535
v -0.004619 -0.106404 0.020875
v -0.016084 -0.103792 -0.002144
v -0.012596 -0.086911 -0.027299
v 0.087058 -0.100360 0.051274
v 0.089869 -0.098630 0.031173
v 0.108033 -0.094478 0.026642
v 0.093583 -0.096343 0.053577
v 0.095720 -0.095027 0.036427
v 0.109532 -0.086523 0.034847
v 0.171151 -0.114070 0.056801
v 0.172849 -0.113025 0.041570
v 0.175095 -0.111642 0.058193
v 0.176386 -0.109263 0.044746
vn 0.4982 0.2111 -0.8410
vn 0.4709 0.2603 -0.8429
vn 0.4900 0.1989 -0.8487
vn 0.6922 -0.7217 -0.0000
vn 0.2329 0.4363 0.8692
vn 0.2167 0.5470 0.8086
vn 0.2348 0.3919 0.8895
vn -0.8620 0.3710 0.3454
vn -0.9194 0.0583 0.3891
vn -0.9184 0.0351 0.3940
vn 0.9509 0.1755 -0.2548
vn 0.9422 0.2204 -0.2524
vn 0.9404 0.2273 -0.2530
vn 0.8585 0.1536 0.4893
vn 0.8700 0.1475 0.4704
vn 0.8558 0.1532 0.4941
vn 0.2497 0.2638 0.9317
vn 0.2394 0.3803 0.8933
vn -0.2103 0.1870 0.9596
vn -0.1907 0.3080 0.9321
vn -0.2055 0.1844 0.9611
vn -0.3233 0.2687 -0.9074
vn -0.3401 0.3063 -0.8891
vn -0.3473 0.3166 -0.8827
vn -0.9779 0.0696 -0.1969
vn -0.8961 0.4089 -0.1728
vn -0.9767 0.0816 -0.1985
vn 0.2548 0.2853 0.9240
vn 0.3427 0.3682 0.8643
vn -0.4502 -0.7494 -0.4855
vn -0.5273 -0.6907 -0.4949
vn -0.4537 -0.7606 -0.4643
vn -0.0240 0.1495 0.9885
vn 0.0185 -0.0444 0.9988
vn -0.2301 0.1268 0.9649
vn 0.0094 0.2535 -0.9673
vn -0.2763 0.3127 -0.9088
vn 0.5345 0.2676 -0.8017
vn 0.5718 0.2790 -0.7715
vn -0.7794 0.5943 0.1984
vn -0.8661 0.3756 0.3298
vn 0.9514 0.1753 -0.2531
vn 0.9570 0.1704 -0.2347
vn 0.9586 0.1723 -0.2266
vn -0.8970 0.4084 -0.1691
vn -0.7725 0.6220 -0.1277
vn 0.6725 -0.5410 0.5050
vn 0.6254 -0.4750 0.6190
vn 0.6165 -0.4633 0.6366
vn -0.1761 0.3436 0.9224
vn -0.0992 0.3401 0.9351
vn 0.8947 0.4465 -0.0144
vn 0.8946 0.4466 -0.0143
vn 0.8946 0.4465 -0.0143
vn 0.7692 -0.5962 -0.2298
vn 0.7975 -0.6009 -0.0548
vn 0.7988 -0.6004 -0.0388
vn -0.7890 0.6142 0.0180
vn -0.7724 0.5566 -0.3059
vn -0.3279 0.2004 0.9232
vn 0.0321 -0.0598 -0.9977
vn 0.0672 0.1775 -0.9818
vn 0.4476 -0.3210 -0.8346
vn 0.5299 -0.4405 -0.7247
vn 0.4238 -0.2881 -0.8587
vn -0.8079 0.5894 0.0004
vn -0.7979 0.5773 -0.1735
vn 0.0877 -0.2391 0.9670
vn -0.5817 -0.7408 -0.3358
vn -0.6552 -0.6539 -0.3783
vn -0.5448 -0.7692 -0.3339
vn -0.3869 -0.3812 0.8397
vn -0.4478 -0.3636 0.8169
vn -0.3872 -0.3770 0.8414
vn -0.2203 0.0651 0.9733
vn -0.2142 0.0042 0.9768
vn 0.9302 0.2623 -0.2568
vn 0.9297 0.2621 -0.2586
vn -0.9251 0.2019 -0.3214
vn 0.4031 0.3608 -0.8410
vn 0.4815 0.2695 -0.8340
vn 0.7993 0.5076 0.3217
vn 0.7854 0.4710 0.4017
vn 0.8022 0.5178 0.2973
vn 0.9678 0.0098 -0.2515
vn 0.9662 0.0107 -0.2575
vn 0.9680 0.0097 -0.2508
vn -0.9789 -0.0459 -0.1989
vn 0.5525 0.1176 -0.8252
vn 0.4557 0.2881 -0.8422
vn 0.5553 0.1303 -0.8214
vn -0.2402 -0.2319 -0.9426
vn 0.0314 -0.4298 -0.9024
vn -0.2477 -0.2155 -0.9446
vn 0.1905 0.1827 0.9645
vn 0.1930 0.1726 0.9659
vn 0.3497 0.3666 -0.8622
vn 0.3996 0.3502 -0.8472
vn 0.2596 0.4469 -0.8561
vn 0.1335 0.8676 -0.4790
vn 0.3302 0.3778 -0.8650
vn 0.2367 -0.8112 -0.5347
vn 0.0581 -0.9615 -0.2685
vn 0.2185 -0.8906 -0.3988
vn -0.2304 -0.4297 -0.8731
vn -0.1532 -0.2221 -0.9629
vn -0.2206 -0.5227 -0.8235
vn 0.6606 0.7143 -0.2310
vn 0.4887 0.8367 -0.2473
vn 0.6614 0.7144 -0.2282
vn -0.1438 -0.1376 0.9800
vn -0.1277 -0.1560 0.9795
vn 0.5426 0.7684 0.3393
vn 0.4697 0.7550 0.4574
vn 0.4652 0.7388 0.4877
vn 0.6385 0.6756 0.3686
vn 0.4811 0.1339 -0.8664
vn 0.4952 0.0687 -0.8661
vn 0.9447 -0.1658 -0.2830
vn 0.9906 -0.1295 0.0442
vn 0.9830 -0.1156 0.1429
vn -0.9192 -0.0579 0.3895
vn -0.9205 -0.0568 0.3865
vn -0.7985 -0.5478 0.2496
vn -0.9046 -0.3489 0.2450
vn -0.7893 -0.5617 0.2480
vn -0.2132 -0.5669 -0.7957
vn 0.9610 0.2053 -0.1853
vn 0.8889 0.4314 0.1544
vn 0.9487 0.2030 -0.2426
vn -0.7336 -0.6697 0.1153
vn -0.7960 -0.5594 -0.2312
vn -0.7736 -0.5610 -0.2945
vn 0.4111 -0.1255 -0.9029
vn 0.1658 -0.1097 0.9800
vn 0.4201 0.1135 0.9003
vn 0.1156 -0.1237 0.9856
vn 0.8933 -0.4158 0.1708
vn -0.9853 -0.1353 -0.1044
vn -0.9770 -0.1476 0.1539
vn -0.9781 -0.1313 -0.1613
vn -0.2146 -0.2183 0.9520
vn -0.4280 -0.5248 -0.7358
vn 0.0008 -1.0000 0.0029
vn 0.0030 -1.0000 -0.0001
vn 0.0009 -1.0000 -0.0043
vn -0.0030 -1.0000 0.0002
vn -0.0000 -1.0000 -0.0000
vn 0.2727 0.2542 -0.9279
vn 0.3012 0.2233 -0.9271
vn 0.2653 0.2705 -0.9254
vn -0.6509 -0.6642 0.3675
vn -0.6540 -0.6656 0.3597
vn -0.6549 -0.6660 0.3573
vn 0.3269 0.4531 -0.8294
vn 0.3310 0.4600 -0.8239
vn -0.6500 -0.7471 0.1390
vn -0.4878 -0.8518 0.1911
vn -0.4856 -0.8509 0.2002
vn 0.6840 -0.7295 -0.0000
vn 0.5668 0.6563 0.4979
vn 0.2061 0.1585 0.9656
vn -0.4104 -0.7831 0.4672
vn -0.4033 -0.7765 0.4841
vn -0.1546 -0.2131 -0.9647
vn -0.1657 -0.2015 -0.9654
vn 0.0458 0.9791 -0.1980
vn 0.8867 -0.3689 -0.2786
vn 0.8925 -0.3760 -0.2490
vn 0.9024 -0.3905 -0.1820
vn 0.6896 0.6872 -0.2284
vn 0.6860 0.6810 -0.2562
vn 0.6898 0.6875 -0.2271
vn -0.0858 -0.9158 0.3924
vn 0.7240 0.6626 0.1915
vn 0.7236 0.6626 0.1934
vn -0.2963 -0.4104 0.8624
vn -0.2773 -0.4282 0.8601
vn -0.1473 -0.7164 0.6819
vn 0.0429 0.9882 0.1469
vn 0.0879 -0.4658 -0.8805
vn 0.1996 -0.5443 -0.8148
vn 0.0367 -0.9933 -0.1099
vn -0.2498 0.8117 0.5280
vn -0.1415 0.9245 0.3539
vn -0.3379 0.6713 0.6597
vn -0.3153 -0.3998 0.8607
vn -0.6416 -0.7234 0.2551
vn -0.6407 -0.7231 0.2580
vn 0.3168 0.2784 0.9067
vn 0.1754 0.3823 0.9072
vn 0.1096 0.4457 0.8884
vn -0.6441 -0.7516 -0.1422
vn -0.6402 -0.7511 -0.1615
vn -0.6444 -0.7516 -0.1409
vn 0.3459 0.3616 -0.8658
vn 0.3482 0.3591 -0.8659
vn 0.4290 0.8696 -0.2443
vn 0.2119 0.9527 -0.2177
vn 0.0530 0.7659 0.6408
vn 0.0585 0.7773 0.6263
vn -0.1514 -0.9662 0.2085
vn 0.1484 -0.9859 -0.0767
vn -0.0032 -0.9963 -0.0862
vn -0.8101 -0.4922 -0.3187
vn -0.8006 -0.4514 -0.3940
vn -0.7961 -0.4368 -0.4188
vn 0.3892 0.2133 0.8961
vn 0.3845 0.2113 0.8986
vn 0.8150 0.4880 -0.3124
vn 0.8035 0.4893 -0.3391
vn 0.8170 0.4877 -0.3077
vn -0.8185 -0.4560 0.3494
vn -0.7871 -0.4599 0.4111
vn -0.7799 -0.4604 0.4240
vn 0.0075 -0.7519 -0.6592
vn -0.0266 -0.6815 -0.7313
vn -0.1484 -0.2993 0.9425
vn -0.1173 -0.3437 0.9317
vn 0.4014 0.4486 -0.7985
vn 0.3447 0.6410 -0.6858
vn -0.1371 0.9757 0.1709
vn -0.2128 0.8842 0.4159
vn -0.3123 -0.0369 0.9493
vn -0.2734 -0.1042 0.9563
vn -0.0527 0.2644 0.9630
vn 0.5885 -0.8058 -0.0658
vn 0.6874 -0.7263 0.0089
vn 0.5460 -0.8324 -0.0948
vn -0.1589 -0.9833 -0.0884
vn 0.3422 0.6370 -0.6907
vn 0.2850 0.4688 -0.8361
vn 0.1556 0.9722 0.1747
vn 0.1521 0.9706 0.1863
vn 0.8541 0.1653 0.4931
vn 0.5070 -0.0901 -0.8572
vn 0.8799 0.1582 0.4481
vn 0.3723 0.3653 0.8532
vn 0.2021 -0.1987 0.9590
vn 0.6813 -0.5545 0.4778
vn 0.8946 0.4465 -0.0144
vn 0.8784 0.4778 0.0078
vn 0.8947 0.4465 -0.0143
vn 0.7964 0.5968 0.0977
vn 0.8756 0.4829 0.0114
vn 0.7651 -0.5948 -0.2466
vn 0.0351 -0.0632 -0.9974
vn 0.5414 -0.4582 -0.7050
vn 0.8258 -0.4736 0.3061
vn -0.4644 -0.3706 0.8043
vn -0.3212 0.4799 -0.8164
vn 0.7815 0.4625 0.4187
vn 0.9659 0.0108 -0.2588
vn -0.9100 0.1852 0.3708
vn 0.1326 0.8781 -0.4596
vn 0.5725 0.7504 0.3305
vn 0.9220 -0.1711 -0.3473
vn -0.9052 -0.3490 0.2426
vn 0.8657 0.4634 0.1892
vn -0.3092 0.0007 -0.9510
vn 0.4541 0.0829 0.8871
vn 0.5588 -0.0653 -0.8267
vn -0.9690 -0.1487 0.1973
vn 0.4615 -0.2208 0.8592
vn 0.3569 -0.2889 -0.8883
vn -0.6505 -0.6640 0.3687
vn 0.8765 -0.3577 -0.3223
vn 0.6856 0.6805 -0.2587
vn -0.1159 -0.1746 0.9778
vn -0.0228 0.7587 0.6510
vn 0.0789 -0.9175 -0.3898
vn 0.3178 0.2793 0.9061
vn -0.6398 -0.7510 -0.1632
vn -0.8124 -0.5102 -0.2823
vn 0.8015 0.4895 -0.3436
vn -0.8247 -0.4549 0.3361
vn 0.0357 0.9961 0.0809
vn -0.2315 0.8114 0.5367
vn 0.7146 -0.6988 0.0317
vn -0.1599 -0.9834 -0.0854
vn 0.2793 0.4525 -0.8469
vn 0.4981 -0.0884 -0.8626
vt 0.254817 0.102597
vt 0.202456 0.137406
vt 0.222101 0.091889
vt 0.594444 0.335041
vt 0.589073 0.321715
vt 0.594444 0.319701
vt 0.352198 0.238836
vt 0.325169 0.185091
vt 0.344915 0.174042
vt 0.075272 0.348283
vt 0.018996 0.323179
vt 0.056921 0.302933
vt 0.266634 0.154651
vt 0.243951 0.151772
vt 0.401187 0.285468
vt 0.390291 0.328882
vt 0.366906 0.290514
vt 0.349246 0.296614
vt 0.329857 0.248280
vt 0.085111 0.292723
vt 0.653081 0.414920
vt 0.604247 0.379406
vt 0.645460 0.365120
vt 0.677316 0.363825
vt 0.383492 0.332729
vt 0.503197 0.799642
vt 0.487616 0.899429
vt 0.480889 0.799309
vt 0.433985 0.385814
vt 0.430466 0.394042
vt 0.650504 0.471973
vt 0.624924 0.427140
vt 0.256790 0.059690
vt 0.269521 0.066438
vt 0.103463 0.393881
vt 0.049270 0.366365
vt 0.271777 0.105341
vt 0.276768 0.069591
vt 0.677316 0.415746
vt 0.442168 0.372057
vt 0.097721 0.343538
vt 0.692059 0.846825
vt 0.686221 0.831779
vt 0.689591 0.824136
vt 0.309380 0.018135
vt 0.316264 0.023298
vt 0.665275 0.473636
vt 0.639263 0.552448
vt 0.116150 0.389569
vt 0.162470 0.454186
vt 0.627460 0.544779
vt 0.637855 0.475087
vt 0.095751 0.404447
vt 0.153036 0.465805
vt 0.919028 0.618361
vt 0.922695 0.546161
vt 0.936667 0.553477
vt 0.463021 0.697687
vt 0.503197 0.647031
vt 0.496038 0.708111
vt 0.278327 0.817774
vt 0.298860 0.885855
vt 0.247369 0.831746
vt 0.045639 0.241034
vt 0.071568 0.232064
vt 0.244998 0.210738
vt 0.221843 0.211984
vt 0.606361 0.298643
vt 0.642486 0.299483
vt 0.892703 0.704996
vt 0.892626 0.619826
vt 0.824795 0.058318
vt 0.873223 0.009893
vt 0.840467 0.066372
vt 0.672336 0.297197
vt 0.726934 0.300740
vt 0.686221 0.371369
vt 0.716534 0.289497
vt 0.832591 0.609681
vt 0.803504 0.732485
vt 0.820940 0.601200
vt 0.378361 0.090169
vt 0.392618 0.093409
vt 0.217548 0.335750
vt 0.177206 0.205588
vt 0.846174 0.186770
vt 0.877141 0.325592
vt 0.829713 0.181454
vt 0.606407 0.211476
vt 0.647290 0.085533
vt 0.643447 0.203651
vt 0.469438 0.797993
vt 0.451074 0.684458
vt 0.250974 0.331281
vt 0.060651 0.130644
vt 0.076368 0.126708
vt 0.388736 0.174031
vt 0.419682 0.101275
vt 0.398768 0.234093
vt 0.869729 0.083495
vt 0.943611 0.620484
vt 0.952962 0.554181
vt 0.004453 0.249556
vt 0.295513 0.814205
vt 0.311849 0.876177
vt 0.487121 0.641686
vt 0.963344 0.314492
vt 0.964325 0.255697
vt 0.981127 0.315681
vt 0.218289 0.777041
vt 0.222403 0.722186
vt 0.238464 0.723219
vt 0.883721 0.566912
vt 0.868281 0.546161
vt 0.658669 0.889043
vt 0.633811 0.826816
vt 0.677316 0.875015
vt 0.794546 0.279200
vt 0.805141 0.302630
vt 0.218947 0.638922
vt 0.215341 0.711540
vt 0.202177 0.637715
vt 0.898380 0.203721
vt 0.940051 0.250864
vt 0.920871 0.265189
vt 0.896900 0.515583
vt 0.919299 0.466800
vt 0.919299 0.528309
vt 0.431751 0.703904
vt 0.422977 0.682439
vt 0.431751 0.678190
vt 0.190578 0.401524
vt 0.190578 0.424858
vt 0.177206 0.423665
vt 0.182720 0.718294
vt 0.172481 0.703705
vt 0.182720 0.702200
vt 0.438284 0.636487
vt 0.420795 0.617570
vt 0.438284 0.612548
vt 0.329278 0.815605
vt 0.347228 0.799644
vt 0.372735 0.815612
vt 0.899034 0.373150
vt 0.918723 0.275198
vt 0.908807 0.375516
vt 0.038504 0.121818
vt 0.909932 0.454690
vt 0.201927 0.780994
vt 0.227835 0.891130
vt 0.216857 0.892445
vt 0.593719 0.367692
vt 0.589073 0.378835
vt 0.589073 0.368354
vt 0.429429 0.004453
vt 0.442168 0.007935
vt 0.238464 0.994421
vt 0.233240 0.995547
vt 0.820107 0.180469
vt 0.425422 0.718895
vt 0.431751 0.723892
vt 0.427047 0.725535
vt 0.161278 0.004453
vt 0.959813 0.148355
vt 0.967842 0.149354
vt 0.273177 0.690009
vt 0.308948 0.614752
vt 0.319954 0.612548
vt 0.168301 0.005877
vt 0.981127 0.005122
vt 0.811020 0.733509
vt 0.878069 0.875431
vt 0.219054 0.501473
vt 0.232727 0.402948
vt 0.238464 0.402964
vt 0.931403 0.823878
vt 0.922473 0.837213
vt 0.247867 0.694192
vt 0.287011 0.690588
vt 0.911285 0.196627
vt 0.896900 0.081230
vt 0.908037 0.080175
vt 0.301511 0.392619
vt 0.268339 0.326077
vt 0.316264 0.391119
vt 0.934442 0.004453
vt 0.940051 0.004837
vt 0.666668 0.189844
vt 0.667174 0.085621
vt 0.599667 0.725112
vt 0.614106 0.722933
vt 0.919526 0.710642
vt 0.634126 0.068747
vt 0.654168 0.004453
vt 0.662367 0.640384
vt 0.673676 0.568039
vt 0.677316 0.565484
vt 0.697540 0.381688
vt 0.773921 0.476185
vt 0.938616 0.721678
vt 0.656347 0.644612
vt 0.940928 0.901979
vt 0.593462 0.344663
vt 0.589296 0.356387
vt 0.589073 0.343947
vt 0.668200 0.005188
vt 0.781610 0.475543
vt 0.800476 0.536089
vt 0.952962 0.900841
vt 0.887994 0.020815
vt 0.589073 0.333380
vt 0.404631 0.322142
vt 0.498031 0.899730
vt 0.704637 0.818297
vt 0.718118 0.836713
vt 0.718118 0.822567
vt 0.712484 0.850103
vt 0.699703 0.850195
vt 0.653215 0.556578
vt 0.168301 0.442389
vt 0.300069 0.004453
vt 0.866112 0.004453
vt 0.887994 0.328853
vt 0.319954 0.873323
vt 0.481105 0.635237
vt 0.948957 0.255349
vt 0.622401 0.835930
vt 0.238464 0.713281
vt 0.354785 0.849768
vt 0.344820 0.846974
vt 0.372735 0.833807
vt 0.330634 0.837635
vt 0.328859 0.829024
vt 0.332466 0.800115
vt 0.356774 0.797662
vt 0.370961 0.807001
vt 0.363396 0.847994
vt 0.914161 0.274094
vt 0.593719 0.381475
vt 0.431751 0.712809
vt 0.976188 0.004453
vt 0.883721 0.868711
vt 0.206282 0.501436
vt 0.948352 0.823707
vt 0.593462 0.358786
vt 0.805141 0.537255
s 1
usemtl マテリアル.002
f 8/1/1 5/2/2 6/3/3
f 96/4/4 97/5/4 95/6/4
f 11/7/5 3/8/6 2/9/7
f 16/10/8 18/11/9 15/12/10
f 8/1/11 9/13/12 45/14/13
f 10/15/14 26/16/15 12/17/16
f 11/7/5 14/18/17 13/19/18
f 13/20/19 16/10/20 15/12/21
f 21/21/22 5/22/23 20/23/24
f 18/24/25 21/21/26 20/23/27
f 12/17/28 27/25/29 14/18/17
f 72/26/30 78/27/31 73/28/32
f 27/25/33 34/29/34 35/30/35
f 30/31/36 6/32/37 21/21/22
f 8/1/1 23/33/38 24/34/39
f 28/35/40 19/36/41 16/10/8
f 10/37/42 24/34/43 25/38/44
f 19/39/45 30/31/46 21/21/26
f 26/16/47 33/40/48 34/29/49
f 14/41/50 28/35/51 16/10/20
f 34/42/52 33/43/53 32/44/54
f 25/38/55 32/45/56 33/46/57
f 29/47/58 38/48/59 30/31/46
f 27/49/33 36/50/60 28/35/51
f 30/31/36 31/51/61 23/52/62
f 23/33/63 32/45/64 24/34/65
f 29/53/58 36/50/66 37/54/67
f 67/55/68 39/56/68 17/57/68
f 58/58/69 56/59/70 57/60/71
f 63/61/72 44/62/73 62/63/74
f 13/20/19 42/64/75 41/65/76
f 45/14/13 49/66/77 48/67/78
f 20/23/79 53/68/79 55/69/79
f 48/67/80 5/2/2 45/14/81
f 67/55/82 104/70/83 65/71/84
f 60/72/85 46/73/86 61/74/87
f 20/23/27 54/75/88 18/24/25
f 65/76/89 101/77/90 53/78/91
f 60/79/92 84/80/93 4/81/94
f 2/9/7 71/82/95 70/83/96
f 48/67/80 89/84/97 47/85/98
f 83/86/99 87/87/100 81/88/101
f 101/89/102 106/90/103 100/91/104
f 58/58/105 74/92/106 59/93/107
f 49/66/108 90/94/109 48/67/110
f 41/65/76 80/95/111 79/96/112
f 1/97/113 70/83/114 69/98/115
f 11/7/116 1/97/113 9/99/116
f 68/100/117 81/88/101 61/74/118
f 66/101/119 17/57/120 22/102/121
f 15/12/10 4/103/122 42/64/123
f 64/104/124 43/105/125 63/61/126
f 59/93/107 52/106/127 58/58/105
f 13/107/128 68/108/129 7/109/130
f 59/110/131 13/111/132 51/112/133
f 50/113/134 4/81/134 18/114/134
f 18/115/135 66/116/136 22/117/137
f 65/76/138 5/118/138 39/119/138
f 62/120/139 5/121/140 47/122/141
f 64/123/142 9/124/142 40/125/142
f 9/126/143 57/127/143 56/128/143
f 5/129/144 44/130/144 39/131/144
f 18/132/145 22/133/145 50/134/145
f 13/135/146 7/136/146 51/137/146
f 9/138/147 56/139/147 40/140/147
f 22/141/148 39/142/148 40/143/148
f 69/144/149 77/145/150 72/146/151
f 42/64/152 84/147/153 80/95/154
f 57/60/71 73/28/32 58/58/69
f 1/148/155 72/146/151 57/127/156
f 3/149/157 74/150/158 71/151/159
f 75/152/160 78/153/160 77/154/160
f 69/98/115 76/155/161 75/156/161
f 70/83/96 71/82/95 76/155/162
f 71/151/159 78/157/163 76/158/164
f 74/92/106 73/28/165 78/27/166
f 82/159/167 81/88/167 87/87/167
f 86/160/168 88/161/169 85/162/170
f 61/74/171 82/159/172 60/72/173
f 80/95/174 84/147/174 86/163/174
f 68/108/129 79/164/175 83/165/176
f 93/166/177 97/167/178 98/168/178
f 79/96/179 86/163/179 85/169/179
f 79/164/180 88/170/180 83/165/180
f 82/171/181 86/172/182 84/80/93
f 92/173/183 95/174/183 97/175/183
f 104/70/184 109/176/185 110/177/186
f 92/178/187 63/61/72 62/63/74
f 64/104/124 93/166/188 94/179/189
f 49/180/190 94/181/191 91/182/192
f 47/122/193 92/173/194 62/120/195
f 90/94/196 95/183/197 89/84/97
f 90/94/109 91/184/198 96/185/199
f 91/182/192 98/186/200 96/187/201
f 94/179/202 93/166/202 98/168/202
f 99/188/203 106/90/103 105/189/204
f 55/69/205 101/89/206 100/91/207
f 66/116/136 99/190/208 102/191/209
f 66/101/210 103/192/211 67/55/212
f 54/75/213 100/91/214 99/188/215
f 106/90/103 107/193/216 112/194/217
f 108/195/218 111/196/219 113/197/219
f 104/198/220 107/199/221 101/77/90
f 102/200/222 109/176/185 103/192/223
f 102/191/224 105/201/225 108/195/218
f 110/177/226 109/176/226 114/202/226
f 111/203/227 114/204/228 113/205/229
f 106/90/103 111/206/230 105/189/204
f 110/207/231 112/208/232 107/199/221
f 109/176/185 113/209/233 114/202/234
f 12/17/16 9/99/235 10/15/14
f 61/74/118 7/210/236 68/100/117
f 8/1/1 45/14/81 5/2/2
f 96/4/4 98/211/4 97/5/4
f 11/7/5 13/19/18 3/8/6
f 16/10/8 19/36/41 18/11/9
f 8/1/11 10/37/42 9/13/12
f 10/15/14 25/212/237 26/16/15
f 11/7/5 12/17/28 14/18/17
f 13/20/19 14/41/50 16/10/20
f 21/21/22 6/32/37 5/22/23
f 18/24/25 19/39/45 21/21/26
f 12/17/28 26/16/238 27/25/29
f 72/26/30 77/213/31 78/27/31
f 27/25/33 26/16/239 34/29/34
f 30/31/36 23/52/62 6/32/37
f 8/1/1 6/3/3 23/33/38
f 28/35/40 29/53/58 19/36/41
f 10/37/42 8/1/11 24/34/43
f 19/39/45 29/47/58 30/31/46
f 26/16/47 25/212/240 33/40/48
f 14/41/50 27/49/33 28/35/51
f 32/44/54 31/214/241 37/215/242
f 31/214/241 38/216/243 37/215/242
f 37/215/242 36/217/244 35/218/245
f 32/44/54 37/215/242 34/42/52
f 35/218/245 34/42/52 37/215/242
f 25/38/55 24/34/246 32/45/56
f 29/47/58 37/219/67 38/48/59
f 27/49/33 35/220/35 36/50/60
f 30/31/36 38/48/247 31/51/61
f 23/33/63 31/221/248 32/45/64
f 29/53/58 28/35/40 36/50/66
f 67/55/249 65/71/249 39/56/249
f 58/58/69 52/106/70 56/59/70
f 63/61/72 43/105/250 44/62/73
f 13/20/19 15/12/21 42/64/75
f 45/14/13 9/13/12 49/66/77
f 20/23/24 5/22/23 53/68/251
f 48/67/80 47/85/98 5/2/2
f 67/55/82 103/192/252 104/70/83
f 60/72/85 50/222/253 46/73/86
f 20/23/254 55/69/254 54/75/254
f 65/76/89 104/198/220 101/77/90
f 60/79/92 82/171/181 84/80/93
f 2/9/7 3/8/6 71/82/95
f 48/67/80 90/94/196 89/84/97
f 83/86/99 88/223/255 87/87/100
f 101/89/102 107/193/216 106/90/103
f 58/58/105 73/28/165 74/92/106
f 49/66/108 91/184/198 90/94/109
f 41/65/76 42/64/75 80/95/111
f 1/97/113 2/9/256 70/83/114
f 11/7/116 2/9/256 1/97/113
f 68/100/117 83/86/99 81/88/101
f 66/101/119 67/55/257 17/57/120
f 15/12/10 18/11/9 4/103/122
f 64/104/124 40/224/258 43/105/125
f 59/93/107 51/225/127 52/106/127
f 13/107/128 41/226/259 68/108/129
f 59/110/131 3/149/157 13/111/132
f 50/113/260 60/79/92 4/81/94
f 18/115/135 54/227/261 66/116/136
f 65/76/89 53/78/91 5/118/262
f 62/120/139 44/228/263 5/121/140
f 64/123/264 49/180/264 9/124/264
f 9/126/265 1/148/265 57/127/265
f 51/229/148 7/230/148 56/231/148
f 7/230/148 46/232/148 50/233/148
f 56/231/148 50/233/148 40/143/148
f 50/233/148 22/141/148 40/143/148
f 7/230/148 50/233/148 56/231/148
f 22/141/148 17/234/148 39/142/148
f 39/142/148 44/235/148 40/143/148
f 44/235/148 43/236/148 40/143/148
f 56/231/148 52/237/148 51/229/148
f 69/144/149 75/238/150 77/145/150
f 42/64/152 4/103/266 84/147/153
f 57/60/71 72/26/30 73/28/32
f 1/148/155 69/144/149 72/146/151
f 3/149/157 59/110/131 74/150/158
f 75/152/160 76/239/160 78/153/160
f 69/98/115 70/83/114 76/155/161
f 71/151/159 74/150/158 78/157/163
f 86/160/168 87/240/267 88/161/169
f 61/74/171 81/88/268 82/159/172
f 68/108/129 41/226/259 79/164/175
f 93/166/177 92/178/187 97/167/178
f 79/96/112 80/95/111 86/163/269
f 79/164/270 85/241/270 88/170/270
f 82/171/271 87/242/271 86/172/271
f 92/173/183 89/243/183 95/174/183
f 104/70/184 103/192/223 109/176/185
f 92/178/187 93/166/177 63/61/72
f 64/104/124 63/61/126 93/166/188
f 49/180/190 64/123/272 94/181/191
f 47/122/193 89/243/273 92/173/194
f 90/94/196 96/185/197 95/183/197
f 91/182/192 94/181/191 98/186/200
f 99/188/203 100/91/104 106/90/103
f 55/69/205 53/68/274 101/89/206
f 66/116/136 54/227/261 99/190/208
f 66/101/210 102/200/275 103/192/211
f 54/75/213 55/69/276 100/91/214
f 108/195/218 105/201/225 111/196/219
f 104/198/220 110/207/231 107/199/221
f 102/200/222 108/244/277 109/176/185
f 102/191/278 99/190/278 105/201/278
f 111/203/227 112/245/279 114/204/228
f 106/90/103 112/194/280 111/206/230
f 110/207/231 114/246/281 112/208/232
f 109/176/185 108/244/277 113/209/233
f 12/17/16 11/7/235 9/99/235
f 61/74/118 46/73/282 7/210/236
