# Blender 4.1.1
# www.blender.org
mtllib Trashcan.mtl
o Trashcan_0
v 2.551992 -7.887135 -2.144487
v 2.353034 4.024775 -2.166963
v 2.352563 4.034027 2.738157
v 2.551535 -7.877883 2.760633
v 2.551535 -7.877883 2.760633
v 2.352563 4.034027 2.738157
v -2.552046 3.952108 2.737847
v -2.353074 -7.959815 2.760337
v -2.353074 -7.959815 2.760337
v -2.552046 3.952108 2.737847
v -2.551588 3.942857 -2.167273
v -2.352616 -7.969067 -2.144797
v 2.353034 4.024775 -2.166963
v 2.551992 -7.887135 -2.144487
v -2.352616 -7.969067 -2.144797
v -2.551588 3.942857 -2.167273
v -2.352616 -7.969067 -2.144797
v 2.551992 -7.887135 -2.144487
v 2.551535 -7.877883 2.760633
v -2.353074 -7.959815 2.760337
v -0.538746 7.949378 -2.174639
v 0.152222 7.960919 -2.174599
v -0.539204 7.958629 2.730481
v 0.151764 7.970171 2.730521
v 0.152222 7.960919 -2.174599
v -0.538746 7.949378 -2.174639
v 0.151764 7.970171 2.730521
v -0.539204 7.958629 2.730481
v 2.551373 -7.874543 4.531975
v 2.352401 4.037367 4.509499
v 2.351930 4.046618 9.414620
v 2.550915 -7.865305 9.437096
v 2.352563 4.034027 2.738157
v 2.353034 4.024775 -2.166963
v 0.152222 7.960919 -2.174599
v 0.151764 7.970171 2.730521
v -2.263345 4.525942 2.357410
v -2.262954 4.518118 -1.788950
v -2.551588 3.942857 -2.167273
v -2.552046 3.952108 2.737847
v -0.827420 7.375544 -1.794202
v -0.827797 7.383368 2.352158
v -0.539204 7.958629 2.730481
v -0.538746 7.949378 -2.174639
v 2.550915 -7.865305 9.437096
v 2.351930 4.046618 9.414620
v -2.552679 3.964700 9.414310
v -2.353707 -7.947223 9.436786
v -2.353707 -7.947223 9.436786
v -2.552679 3.964700 9.414310
v -2.552208 3.955448 4.509189
v -2.353249 -7.956475 4.531666
v -2.353249 -7.956475 4.531666
v -2.552208 3.955448 4.509189
v 2.352401 4.037367 4.509499
v 2.551373 -7.874543 4.531975
v 2.550915 -7.865305 9.437096
v -2.353707 -7.947223 9.436786
v -2.353249 -7.956475 4.531666
v 2.551373 -7.874543 4.531975
v -0.539365 7.961969 4.501823
v 0.151589 7.973510 4.501864
v -0.539823 7.971221 9.406943
v 0.151131 7.982762 9.406984
v 0.151589 7.973510 4.501864
v -0.539365 7.961969 4.501823
v 0.151131 7.982762 9.406984
v -0.539823 7.971221 9.406943
v 2.351930 4.046618 9.414620
v 2.352401 4.037367 4.509499
v 0.151589 7.973510 4.501864
v 0.151131 7.982762 9.406984
v -2.263978 4.538534 9.033873
v -2.263587 4.530709 4.887512
v -2.552208 3.955448 4.509189
v -2.552679 3.964700 9.414310
v -0.828040 7.388135 4.882260
v -0.828430 7.395960 9.028607
v -0.539823 7.971221 9.406943
v -0.539365 7.961969 4.501823
v 2.552679 -7.900830 -9.406930
v 2.353707 4.011079 -9.429420
v 2.353249 4.020331 -4.524300
v 2.552221 -7.891579 -4.501810
v 2.552221 -7.891579 -4.501810
v 2.353249 4.020331 -4.524300
v -2.551359 3.938413 -4.524596
v -2.352387 -7.973511 -4.502120
v -2.352387 -7.973511 -4.502120
v -2.551359 3.938413 -4.524596
v -2.550901 3.929161 -9.429730
v -2.351929 -7.982762 -9.407240
v -2.351929 -7.982762 -9.407240
v -2.550901 3.929161 -9.429730
v 2.353707 4.011079 -9.429420
v 2.552679 -7.900830 -9.406930
v 2.552221 -7.891579 -4.501810
v -2.352387 -7.973511 -4.502120
v -2.351929 -7.982762 -9.407240
v 2.552679 -7.900830 -9.406930
v -0.538059 7.935682 -9.437096
v 0.152909 7.947223 -9.437042
v -0.538517 7.944934 -4.531962
v 0.152438 7.956475 -4.531922
v 0.152909 7.947223 -9.437042
v -0.538059 7.935682 -9.437096
v 0.152438 7.956475 -4.531922
v -0.538517 7.944934 -4.531962
v 2.353249 4.020331 -4.524300
v 2.353707 4.011079 -9.429420
v 0.152909 7.947223 -9.437042
v 0.152438 7.956475 -4.531922
v -2.262658 4.512246 -4.905046
v -2.262267 4.504422 -9.051393
v -2.550901 3.929161 -9.429730
v -2.551359 3.938413 -4.524596
v -0.826733 7.361848 -9.056645
v -0.827124 7.369672 -4.910298
v -0.538517 7.944934 -4.531962
v -0.538059 7.935682 -9.437096
vn 0.9999 0.0167 0.0001
vn -0.0001 0.0019 1.0000
vn -0.9999 -0.0167 -0.0001
vn 0.0001 -0.0019 -1.0000
vn 0.0167 -0.9999 0.0019
vn -0.0167 0.9999 -0.0019
vn 0.8728 0.4880 -0.0008
vn -0.8936 0.4489 -0.0009
vn -0.8936 0.4489 -0.0010
vt 0.800000 0.357170
vt 0.600000 0.357170
vt 0.600000 0.571450
vt 0.800000 0.571450
vt 0.000000 0.428550
vt 0.000000 0.642830
vt 0.200000 0.642830
vt 0.200000 0.428550
vt 0.200000 0.214280
vt 0.200000 0.000000
vt 0.000000 0.000000
vt 0.000000 0.214280
vt 0.400000 0.642830
vt 0.400000 0.428550
vt 0.800000 0.785720
vt 1.000000 0.785720
vt 1.000000 0.571450
vt 0.284790 0.714280
vt 0.312960 0.714280
vt 0.400000 0.090840
vt 0.400000 0.121020
vt 0.600000 0.121020
vt 0.600000 0.090840
vt 0.087040 0.714280
vt 0.115210 0.714280
vt 0.400000 0.214280
vt 0.600000 0.214280
vt 0.415470 0.013030
vt 0.584530 0.013030
vt 0.600000 0.000000
vt 0.400000 0.000000
vt 0.584530 0.077810
vt 0.415470 0.077810
vt 0.000000 0.714280
vt 0.000000 0.928550
vt 0.200000 0.928550
vt 0.200000 0.714280
vt 0.600000 0.428550
vt 0.400000 0.714280
vt 0.400000 0.928550
vt 0.600000 0.928550
vt 0.600000 0.714280
vt 0.800000 1.000000
vt 1.000000 1.000000
vt 0.484790 1.000000
vt 0.512960 1.000000
vt 0.600000 0.876560
vt 0.600000 0.906750
vt 0.800000 0.906750
vt 0.800000 0.876560
vt 0.087040 1.000000
vt 0.115210 1.000000
vt 0.600000 1.000000
vt 0.615470 0.798750
vt 0.784530 0.798750
vt 0.600000 0.785720
vt 0.784530 0.863530
vt 0.615470 0.863530
vt 0.800000 0.142890
vt 0.600000 0.142890
vt 0.600000 0.642830
vt 0.484790 0.714280
vt 0.512960 0.714280
vt 0.800000 0.694890
vt 0.800000 0.664700
vt 0.600000 0.664700
vt 0.600000 0.694890
vt 0.287040 1.000000
vt 0.315210 1.000000
vt 0.784530 0.772700
vt 0.615470 0.772700
vt 0.615470 0.707910
vt 0.784530 0.707910
s 0
usemtl trash
f 1/1/1 2/2/1 3/3/1
f 1/1/1 3/3/1 4/4/1
f 5/5/2 6/6/2 7/7/2
f 5/5/2 7/7/2 8/8/2
f 9/9/3 10/10/3 11/11/3
f 9/9/3 11/11/3 12/12/3
f 13/13/4 14/14/4 15/8/4
f 13/13/4 15/8/4 16/7/4
f 17/4/5 18/15/5 19/16/5
f 17/4/5 19/16/5 20/17/5
f 13/13/4 16/7/4 21/18/4
f 13/13/4 21/18/4 22/19/4
f 23/20/6 24/21/6 25/22/6
f 23/20/6 25/22/6 26/23/6
f 7/7/2 6/6/2 27/24/2
f 7/7/2 27/24/2 28/25/2
f 29/9/1 30/12/1 31/5/1
f 29/9/1 31/5/1 32/8/1
f 33/26/7 34/27/7 35/22/7
f 33/26/7 35/22/7 36/21/7
f 37/28/8 38/29/8 39/30/8
f 37/28/8 39/30/8 40/31/8
f 41/32/8 42/33/8 43/20/8
f 41/32/8 43/20/8 44/23/8
f 38/29/8 41/32/8 44/23/8
f 38/29/8 44/23/8 39/30/8
f 42/33/9 37/28/9 40/31/9
f 42/33/9 40/31/9 43/20/9
f 45/34/2 46/35/2 47/36/2
f 45/34/2 47/36/2 48/37/2
f 49/38/3 50/27/3 51/26/3
f 49/38/3 51/26/3 52/14/3
f 53/39/4 54/40/4 55/41/4
f 53/39/4 55/41/4 56/42/4
f 57/16/5 58/15/5 59/43/5
f 57/16/5 59/43/5 60/44/5
f 55/41/4 54/40/4 61/45/4
f 55/41/4 61/45/4 62/46/4
f 63/47/6 64/48/6 65/49/6
f 63/47/6 65/49/6 66/50/6
f 47/36/2 46/35/2 67/51/2
f 47/36/2 67/51/2 68/52/2
f 69/53/7 70/43/7 71/49/7
f 69/53/7 71/49/7 72/48/7
f 73/54/8 74/55/8 75/15/8
f 73/54/8 75/15/8 76/56/8
f 77/57/8 78/58/8 79/47/8
f 77/57/8 79/47/8 80/50/8
f 74/55/8 77/57/8 80/50/8
f 74/55/8 80/50/8 75/15/8
f 78/58/9 73/54/9 76/56/9
f 78/58/9 76/56/9 79/47/9
f 81/31/1 82/10/1 83/9/1
f 81/31/1 83/9/1 84/26/1
f 85/37/2 86/36/2 87/40/2
f 85/37/2 87/40/2 88/39/2
f 89/2/3 90/1/3 91/59/3
f 89/2/3 91/59/3 92/60/3
f 93/14/4 94/13/4 95/61/4
f 93/14/4 95/61/4 96/38/4
f 97/14/5 98/26/5 99/9/5
f 97/14/5 99/9/5 100/8/5
f 95/61/4 94/13/4 101/62/4
f 95/61/4 101/62/4 102/63/4
f 103/64/6 104/65/6 105/66/6
f 103/64/6 105/66/6 106/67/6
f 87/40/2 86/36/2 107/68/2
f 87/40/2 107/68/2 108/69/2
f 109/4/7 110/3/7 111/66/7
f 109/4/7 111/66/7 112/65/7
f 113/70/8 114/71/8 115/56/8
f 113/70/8 115/56/8 116/15/8
f 117/72/8 118/73/8 119/64/8
f 117/72/8 119/64/8 120/67/8
f 114/71/8 117/72/8 120/67/8
f 114/71/8 120/67/8 115/56/8
f 118/73/9 113/70/9 116/15/9
f 118/73/9 116/15/9 119/64/9
