# Blender 4.1.1
# www.blender.org
mtllib PlayerLeftArm.mtl
o 立方体.003
v -0.396934 -1.072007 -0.224114
v 0.167747 -0.121640 -0.154984
v -0.396934 -1.072007 0.224114
v 0.167747 -0.121640 0.154984
v -0.835367 -0.765013 -0.224114
v -0.135446 0.090659 -0.154984
v -0.835367 -0.765013 0.224114
v -0.135446 0.090659 0.154984
vn 0.8597 -0.5108 -0.0000
vn 0.0359 0.0513 0.9980
vn -0.7740 0.6331 -0.0000
vn 0.0359 0.0513 -0.9980
vn -0.5736 -0.8192 -0.0000
vn 0.5736 0.8192 -0.0000
vt 0.375000 0.000000
vt 0.625000 0.000000
vt 0.625000 0.250000
vt 0.375000 0.250000
vt 0.625000 0.500000
vt 0.375000 0.500000
vt 0.625000 0.750000
vt 0.375000 0.750000
vt 0.625000 1.000000
vt 0.375000 1.000000
vt 0.125000 0.500000
vt 0.125000 0.750000
vt 0.875000 0.500000
vt 0.875000 0.750000
s 0
usemtl マテリアル.002
f 1/1/1 2/2/1 4/3/1 3/4/1
f 3/4/2 4/3/2 8/5/2 7/6/2
f 7/6/3 8/5/3 6/7/3 5/8/3
f 5/8/4 6/7/4 2/9/4 1/10/4
f 3/11/5 7/6/5 5/8/5 1/12/5
f 8/5/6 4/13/6 2/14/6 6/7/6
