# Blender 4.1.1
# www.blender.org
mtllib PlayerBeam.mtl
o Cube
v 0.224521 -0.084576 0.222247
v 0.224521 0.084576 0.222247
v 0.343363 -0.084576 0.222247
v 0.343363 0.084576 0.222247
v 0.224521 -0.084576 5.452217
v 0.224521 0.084576 5.452217
v 0.343363 -0.084576 5.452217
v 0.343363 0.084576 5.452217
v -0.341874 -0.084576 0.222247
v -0.341874 0.084576 0.222247
v -0.223033 -0.084576 0.222247
v -0.223033 0.084576 0.222247
v -0.341874 -0.084576 5.452217
v -0.341874 0.084576 5.452217
v -0.223033 -0.084576 5.452217
v -0.223033 0.084576 5.452217
vn 0.5773 0.5773 0.5774
vn 0.5774 -0.5774 0.5773
vn -0.5774 0.5774 0.5773
vn -0.5773 -0.5773 0.5774
vn 0.5774 0.5774 -0.5773
vn 0.5773 -0.5773 -0.5774
vn -0.5773 0.5773 -0.5774
vn -0.5774 -0.5774 -0.5773
vt 0.875000 0.500000
vt 0.625000 0.750000
vt 0.625000 0.500000
vt 0.375000 1.000000
vt 0.375000 0.750000
vt 0.625000 0.000000
vt 0.375000 0.250000
vt 0.375000 0.000000
vt 0.375000 0.500000
vt 0.125000 0.750000
vt 0.125000 0.500000
vt 0.625000 0.250000
vt 0.875000 0.750000
vt 0.625000 1.000000
s 1
usemtl Material
f 5/1/5 3/2/3 1/3/1
f 3/2/3 8/4/8 4/5/4
f 7/6/7 6/7/6 8/8/8
f 2/9/2 8/10/8 6/11/6
f 1/3/1 4/5/4 2/9/2
f 5/12/5 2/9/2 6/7/6
f 5/1/5 7/13/7 3/2/3
f 3/2/3 7/14/7 8/4/8
f 7/6/7 5/12/5 6/7/6
f 2/9/2 4/5/4 8/10/8
f 1/3/1 3/2/3 4/5/4
f 5/12/5 1/3/1 2/9/2
usemtl Material.001
f 13/1/5 11/2/3 9/3/1
f 11/2/3 16/4/8 12/5/4
f 15/6/7 14/7/6 16/8/8
f 10/9/2 16/10/8 14/11/6
f 9/3/1 12/5/4 10/9/2
f 13/12/5 10/9/2 14/7/6
f 13/1/5 15/13/7 11/2/3
f 11/2/3 15/14/7 16/4/8
f 15/6/7 13/12/5 14/7/6
f 10/9/2 12/5/4 16/10/8
f 9/3/1 11/2/3 12/5/4
f 13/12/5 9/3/1 10/9/2
